Coordinates
version=1
nRows=16
nColumns=36
inDegrees=yes

Units are S.I. units (second, meters, Newtons, ...)
If the header above contains a line with 'inDegrees', this indicates whether rotational values are in degrees (yes) or radians (no).

endheader
time	pelvis_tilt	pelvis_list	pelvis_rotation	pelvis_tx	pelvis_ty	pelvis_tz	hip_flexion_r	hip_adduction_r	hip_rotation_r	knee_angle_r	knee_angle_r_beta	ankle_angle_r	subtalar_angle_r	mtp_angle_r	hip_flexion_l	hip_adduction_l	hip_rotation_l	knee_angle_l	knee_angle_l_beta	ankle_angle_l	subtalar_angle_l	mtp_angle_l	lumbar_extension	lumbar_bending	lumbar_rotation	arm_flex_r	arm_add_r	arm_rot_r	elbow_flex_r	pro_sup_r	arm_flex_l	arm_add_l	arm_rot_l	elbow_flex_l	pro_sup_l
      0.00000000	      0.12823272	      1.02623839	      1.04699579	     -0.05245708	      1.34305952	     -0.08496171	     -3.09553216	     -0.43418174	      1.69365501	      0.74589829	      0.01301838	     10.65936479	     -0.90718766	     -6.53121909	     -2.46417183	      1.59815155	      7.41539360	      1.78611208	      0.03117354	     10.40561804	     -3.46227176	     -6.53121909	     -2.26738493	     -0.69303517	     -0.81088808	     -5.69477467	    -12.48775043	      6.32491814	     24.75827106	     82.11238172	     -8.20724012	    -11.44236929	      7.33607996	     27.99826308	     82.02018763
      0.01666670	     -0.07372325	      0.91777893	      1.34340544	     -0.05299947	      1.34268302	     -0.08689258	     -3.13173360	     -0.34783402	      3.36355588	      0.65266230	      0.01139111	     13.19653559	     -0.01935943	     -7.08766604	     -2.36027613	      1.57617443	      8.49377892	      1.69710025	      0.02961999	     10.52375111	     -3.95145108	     -7.08766604	     -2.27848031	     -0.55653577	     -0.59561898	     -6.90308183	    -12.17775201	      2.83200379	     25.95724745	     85.74474676	     -9.01656916	    -10.21398358	      3.55901127	     27.95043596	     84.37378515
      0.03333330	      0.34960823	      0.51346363	      1.39615993	     -0.05509200	      1.34507024	     -0.08753499	     -3.54131958	      0.22052630	      3.02094017	      0.85601149	      0.01494022	     13.01675102	      0.26559549	     -7.10302445	     -3.27381667	      1.06025541	      8.78340308	      0.93219985	      0.01626996	     10.30738633	     -3.95583705	     -7.10302445	     -3.16381673	      0.13411588	     -0.35003223	     -7.35527017	    -12.29158299	      1.92050103	     26.22578455	     85.25473233	     -8.30644682	     -9.36612448	      2.29664262	     27.18849648	     83.79448479
      0.05000000	      0.65889635	      0.48294607	      1.53198394	     -0.05751281	      1.34188047	     -0.08847091	     -3.69061740	      0.22062253	      2.19164228	      1.21647729	      0.02123153	     13.35430197	      1.10372280	     -7.14239249	     -3.71126606	      0.99279839	      8.79373978	      0.88483345	      0.01544326	     10.21111342	     -3.98038912	     -7.14239249	     -3.87205211	      0.35488836	     -0.29196652	     -7.79408056	    -12.38502737	      1.19903670	     27.37266115	     82.56118103	     -8.52445107	     -8.97767988	      1.38368096	     28.00786653	     81.19173665
      0.06666670	      1.34865798	      0.53329219	      1.38115406	     -0.05941635	      1.34011480	     -0.08891616	     -4.22155022	      0.13174186	      1.83469543	      1.65256213	      0.02884265	     13.96419963	      1.65341762	     -7.30307368	     -4.46588349	      1.04777271	      8.79505130	      0.92991104	      0.01623001	     10.03148092	     -4.37896791	     -7.30307368	     -4.94352904	      0.47324981	     -0.01317779	     -7.65589222	    -12.36510748	      1.08950239	     28.37861765	     77.15323237	     -8.42754196	     -8.41261405	      0.33392110	     28.12341445	     75.94330107
      0.08333330	      2.21922875	      0.59871183	      1.24630075	     -0.06117076	      1.34167703	     -0.08911196	     -5.03895241	      0.07753496	      1.93740948	      1.94640439	      0.03397117	     14.31144917	      1.71020623	     -7.38326603	     -5.29029766	      1.10331530	      8.60546821	      1.10960479	      0.01936626	      9.94190421	     -4.30397243	     -7.38326603	     -6.27091677	      0.51801292	      0.11580047	     -7.29752235	    -12.46000058	      1.40746923	     29.04987338	     77.03396591	     -8.05895852	     -8.26111808	     -0.05549470	     28.38371979	     76.46750279
      0.10000000	      2.86464426	      0.76705110	      1.21890770	     -0.06234961	      1.34306473	     -0.08922094	     -5.73952927	     -0.09806181	      2.00481752	      2.08202535	      0.03633820	     14.44751867	      1.73461338	     -7.41315431	     -5.86108984	      1.25653389	      8.60457417	      1.13033417	      0.01972805	      9.75445206	     -4.41107218	     -7.41315431	     -7.32244665	      0.43114926	      0.22142624	     -7.19427902	    -12.32436497	      1.10659332	     30.00991798	     74.91491416	     -8.05904260	     -8.15311040	     -0.50850382	     29.04603353	     74.56039724
      0.11666670	      3.27741924	      0.90587385	      1.34381987	     -0.06358995	      1.34359260	     -0.08923438	     -6.17809219	     -0.24288970	      2.01853068	      2.15966338	      0.03769324	     14.49135806	      1.72338296	     -7.44006824	     -6.24979105	      1.35900068	      8.60085829	      1.06213575	      0.01853777	      9.57037958	     -4.49770898	     -7.44006824	     -8.05554015	      0.34562509	      0.17380671	     -7.09431020	    -12.24941121	      1.30347797	     30.74060784	     73.48669629	     -8.19451674	     -8.28290287	     -0.55468908	     29.40485871	     73.54911907
      0.13333330	      3.67842236	      1.11550960	      1.41992559	     -0.06453842	      1.34164684	     -0.08916440	     -6.64009875	     -0.49003565	      2.04517079	      2.21049742	      0.03858046	     14.50603093	      1.84898674	     -7.48909242	     -6.69675500	      1.53853976	      8.49723478	      0.98008492	      0.01710571	      9.27797262	     -4.52931215	     -7.48909242	     -8.69677507	      0.17052990	     -0.06892893	     -6.91393361	    -12.02027791	      0.86136785	     31.36678595	     74.60450641	     -8.50295615	     -8.26009526	     -1.84025558	     29.89566656	     76.13492234
      0.15000000	      4.02608740	      1.29152166	      1.55279519	     -0.06549080	      1.34229656	     -0.08908554	     -7.05634643	     -0.68446217	      1.95537201	      2.10259741	      0.03669725	     14.25282529	      1.69871989	     -7.49233725	     -7.04714447	      1.67771164	      8.47491454	      0.92273321	      0.01610473	      9.12138977	     -4.48675770	     -7.49233725	     -9.28267498	      0.01639547	     -0.18922156	     -6.81543324	    -11.94953955	      1.22385502	     31.80828723	     72.81658517	     -8.54162319	     -8.46439464	     -1.43593809	     30.14827306	     74.38475765
      0.16666670	      4.35314501	      1.42920778	      1.72782887	     -0.06606234	      1.34325417	     -0.08911683	     -7.49589133	     -0.79671536	      1.82430702	      1.99552100	      0.03482841	     14.12384579	      1.79856530	     -7.49446395	     -7.30912855	      1.79590706	      8.71115720	      0.92465546	      0.01613828	      8.89839546	     -4.68087673	     -7.49446395	     -9.79789941	     -0.11567788	     -0.37000200	     -6.67380983	    -11.89545603	      1.67512970	     31.99454040	     71.68343970	     -8.49613889	     -8.68646383	     -0.94064005	     30.19754049	     73.44106374
      0.18333330	      4.61828238	      1.52665853	      1.89096670	     -0.06664950	      1.34368833	     -0.08910843	     -7.85565875	     -0.85534865	      1.84923820	      1.89317880	      0.03304220	     13.94146359	      1.78172203	     -7.49587505	     -7.51585436	      1.86823002	      8.91797272	      0.97218334	      0.01696780	      8.74571452	     -4.90434987	     -7.49587505	    -10.22277660	     -0.21710213	     -0.53761860	     -6.55295833	    -11.80275001	      1.93792590	     32.13756752	     71.33667635	     -8.42218942	     -8.86269801	     -0.67254483	     30.29971909	     73.35523357
      0.20000000	      4.85988947	      1.63728595	      1.99026481	     -0.06703897	      1.34476963	     -0.08897723	     -8.09036622	     -0.96598744	      1.79966155	      1.75695572	      0.03066466	     13.83353650	      1.87648228	     -7.49748007	     -7.71846554	      1.98066606	      9.10816891	      1.05996889	      0.01849995	      8.70332387	     -5.01042262	     -7.49748007	    -10.66814296	     -0.33702498	     -0.81113712	     -6.34791756	    -11.70981315	      2.17715850	     32.15845709	     70.31745623	     -8.27199805	     -8.99935398	     -0.36581908	     30.52589086	     72.43820068
      0.21666670	      5.25257485	      1.67605957	      2.04670875	     -0.06757926	      1.34513538	     -0.08904549	     -8.57439151	     -0.99405103	      1.70112085	      1.62152709	      0.02830099	     13.71065080	      2.07761463	     -7.49800569	     -8.03569481	      1.99665885	      9.24904784	      1.23466243	      0.02154892	      8.61762642	     -5.17493164	     -7.49800569	    -11.36798452	     -0.38924014	     -1.01536308	     -6.54590178	    -11.69745698	      2.04842551	     33.20140366	     69.36407314	     -8.57358549	     -9.15961925	     -0.45533732	     31.58846507	     71.38426152
      0.23333330	      5.23337150	      1.72851733	      2.10787022	     -0.06763274	      1.34563108	     -0.08906598	     -8.59690206	     -1.04761715	      1.90059330	      1.51239662	      0.02639630	     13.31898641	      1.60914612	     -7.49907203	     -7.91101418	      2.06085823	      9.41049929	      1.42502380	      0.02487136	      8.53285527	     -5.38150780	     -7.49907203	    -11.19850745	     -0.46797423	     -1.25526097	     -6.04749399	    -11.65114668	      2.92367932	     32.06794866	     69.61972106	     -8.14910223	     -9.31389837	      0.51285312	     30.79829407	     71.86921459
      0.25000000	      5.53026326	      1.77425926	      2.22694843	     -0.06794258	      1.34596513	     -0.08922614	     -8.95995853	     -1.06519398	      1.69834854	      1.38239391	      0.02412733	     13.22304964	      1.85673182	     -7.49927779	     -8.07167711	      2.10643398	      9.67087378	      1.64658463	      0.02873832	      8.66780122	     -5.38223975	     -7.49927779	    -11.75794969	     -0.51155134	     -1.46505543	     -6.20747182	    -11.54504732	      2.61412372	     32.69495499	     68.85341812	     -8.24397056	     -9.35258990	      0.26336744	     31.83145092	     70.99097762
